
<svg xmlns="http://www.w3.org/2000/svg" width="120" height="268" fill="none"><rect width="119" height="267" x=".5" y=".5" fill="#20232C" rx="15.5"/><rect width="32" height="6" x="44" y="8" fill="#0E1015" rx="3"/><path fill="#0E1015" d="M4 26a4 4 0 0 1 4-4h104a4 4 0 0 1 4 4v226c0 6.627-5.373 12-12 12H16c-6.627 0-12-5.373-12-12V26z"/><rect width="36.257" height="7.162" x="12" y="33.581" fill="#20232C" rx=".895"/><rect width="48.343" height="14.324" x="59.657" y="30" fill="#2B2F3B" rx="3.581"/><rect width="96" height="14.324" x="12" y="76.324" fill="#20232C" rx=".895"/><rect width="72" height="14.324" x="24" y="97.809" fill="#20232C" rx=".895"/><rect width="96" height="7.162" x="12" y="126.457" fill="#14171F" rx=".895"/><rect width="59.086" height="14.324" x="30.457" y="147.943" fill="#918CED" rx="3.581"/><circle cx="67.162" cy="181.962" r="5.371" fill="#20232C"/><circle cx="52.838" cy="181.962" r="5.371" fill="#20232C"/><circle cx="60" cy="181.962" r="5.371" fill="#2B2F3B"/><path fill="url(#a)" d="M12 226.495a7.162 7.162 0 0 1 7.162-7.162h81.676a7.162 7.162 0 0 1 7.162 7.162V264H12v-37.505z"/><rect width="119" height="267" x=".5" y=".5" stroke="#2B2F3B" rx="15.5"/><defs><linearGradient id="a" x1="60" x2="60" y1="219.333" y2="264" gradientUnits="userSpaceOnUse"><stop stop-color="#14171F"/><stop offset="1" stop-color="#14171F" stop-opacity="0"/></linearGradient></defs></svg>