
<svg xmlns="http://www.w3.org/2000/svg" width="280" height="256" fill="none"><rect width="280" height="256" fill="#14171F" rx="16"/><path fill="#E4E5E9" d="M24.636 30.13v-1.766h9.284v1.767h-3.596V40h-2.091v-9.87h-3.597zM34.713 40v-8.727h1.994v1.454h.091c.16-.503.432-.892.819-1.164.39-.277.835-.415 1.335-.415.113 0 .24.005.38.017.144.007.264.02.358.04v1.892a2.167 2.167 0 0 0-.414-.08 3.82 3.82 0 0 0-.54-.04 2.08 2.08 0 0 0-1.012.245c-.295.159-.528.38-.698.664-.17.284-.256.612-.256.983V40h-2.057zm8.699.176a3.64 3.64 0 0 1-1.494-.295 2.436 2.436 0 0 1-1.046-.887c-.254-.39-.38-.87-.38-1.443 0-.492.09-.9.272-1.221.182-.322.43-.58.744-.773a3.755 3.755 0 0 1 1.063-.438 8.644 8.644 0 0 1 1.233-.221c.511-.053.926-.1 1.244-.142.319-.046.55-.114.694-.205.147-.095.221-.24.221-.437v-.034c0-.428-.127-.76-.38-.995-.254-.235-.62-.352-1.097-.352-.504 0-.904.11-1.2.33-.29.22-.488.479-.59.778l-1.92-.273c.151-.53.401-.973.75-1.33.348-.36.774-.628 1.278-.806a4.89 4.89 0 0 1 1.67-.273c.42 0 .84.05 1.256.148.417.098.798.261 1.142.489.345.223.621.528.83.914.212.387.318.87.318 1.45V40h-1.977v-1.199h-.069a2.51 2.51 0 0 1-.528.682 2.542 2.542 0 0 1-.847.506c-.337.125-.732.187-1.187.187zm.534-1.511c.413 0 .77-.082 1.074-.245a1.8 1.8 0 0 0 .699-.659c.166-.272.25-.57.25-.892v-1.028a.967.967 0 0 1-.33.148 4.655 4.655 0 0 1-.511.119c-.19.034-.377.064-.563.09l-.483.069c-.306.042-.581.11-.824.205a1.368 1.368 0 0 0-.573.397c-.14.167-.21.383-.21.648 0 .379.138.665.414.858.277.193.629.29 1.057.29zm8.199-3.779V40h-2.057v-8.727h1.966v1.483h.102c.201-.489.521-.877.96-1.165.444-.288.991-.432 1.642-.432.603 0 1.127.129 1.574.387.451.257.8.63 1.046 1.119.25.488.373 1.081.37 1.778V40H55.69v-5.239c0-.583-.151-1.04-.454-1.369-.3-.33-.714-.494-1.244-.494-.36 0-.68.08-.96.238a1.659 1.659 0 0 0-.654.676c-.156.296-.233.654-.233 1.074zm14.59-1.306-1.874.204a1.506 1.506 0 0 0-.279-.534 1.382 1.382 0 0 0-.522-.403c-.22-.103-.489-.154-.807-.154-.428 0-.788.093-1.08.279-.288.185-.43.426-.426.721a.755.755 0 0 0 .279.62c.193.159.51.29.954.392l1.489.318c.826.178 1.44.46 1.84.846.406.387.61.892.614 1.517a2.373 2.373 0 0 1-.483 1.455c-.314.417-.752.742-1.312.977s-1.205.352-1.932.352c-1.068 0-1.928-.223-2.58-.67-.651-.45-1.04-1.078-1.164-1.88l2.005-.194c.091.394.285.691.58.892.295.2.68.301 1.153.301.489 0 .881-.1 1.177-.3.299-.202.448-.45.448-.745a.775.775 0 0 0-.29-.62c-.189-.162-.484-.287-.886-.374l-1.488-.313c-.838-.174-1.457-.468-1.858-.88-.402-.417-.6-.944-.597-1.58-.004-.538.142-1.004.438-1.398.299-.398.713-.704 1.244-.92.534-.22 1.15-.33 1.846-.33 1.023 0 1.828.218 2.415.654.591.435.957 1.024 1.097 1.767zM68.62 40v-8.727h2.057V40H68.62zm1.034-9.966a1.2 1.2 0 0 1-.84-.324 1.044 1.044 0 0 1-.353-.79c0-.31.118-.573.353-.79.234-.219.515-.329.84-.329.33 0 .61.11.841.33.235.216.353.479.353.79 0 .306-.118.57-.353.79a1.187 1.187 0 0 1-.84.323zm7.496 1.239v1.59h-5.017v-1.59h5.017zm-3.778-2.091h2.057v8.193c0 .276.041.489.125.636.087.144.2.243.34.296.14.053.296.08.466.08a2 2 0 0 0 .353-.029c.11-.019.193-.036.25-.051l.346 1.608a4.59 4.59 0 0 1-.471.125 3.933 3.933 0 0 1-.739.08 3.354 3.354 0 0 1-1.392-.234 2.165 2.165 0 0 1-.983-.806c-.239-.364-.356-.819-.352-1.364v-8.534zM78.869 40v-8.727h2.057V40H78.87zm1.034-9.966a1.2 1.2 0 0 1-.84-.324 1.044 1.044 0 0 1-.353-.79c0-.31.118-.573.353-.79.234-.219.515-.329.84-.329.33 0 .61.11.841.33.235.216.353.479.353.79 0 .306-.118.57-.353.79a1.187 1.187 0 0 1-.84.323zm6.945 10.136c-.852 0-1.59-.187-2.216-.562a3.82 3.82 0 0 1-1.454-1.574c-.341-.674-.512-1.462-.512-2.364 0-.901.17-1.69.512-2.369a3.812 3.812 0 0 1 1.454-1.58c.625-.374 1.364-.562 2.216-.562.852 0 1.59.188 2.216.563a3.775 3.775 0 0 1 1.449 1.58c.344.677.517 1.467.517 2.368 0 .902-.172 1.69-.517 2.364a3.783 3.783 0 0 1-1.45 1.574c-.624.375-1.363.563-2.215.563zm.011-1.647c.463 0 .849-.127 1.16-.381.31-.258.541-.602.693-1.034.155-.432.233-.913.233-1.443 0-.534-.078-1.017-.233-1.45-.152-.435-.383-.781-.694-1.039-.31-.257-.697-.386-1.159-.386-.473 0-.867.129-1.181.386-.311.258-.544.604-.7 1.04a4.356 4.356 0 0 0-.227 1.449c0 .53.076 1.011.228 1.443.155.432.388.777.699 1.034.314.254.708.38 1.181.38zm7.973-3.637V40h-2.056v-8.727h1.966v1.483h.102c.2-.489.52-.877.96-1.165.443-.288.99-.432 1.642-.432.602 0 1.127.129 1.574.387.45.257.8.63 1.045 1.119.25.488.373 1.081.37 1.778V40h-2.057v-5.239c0-.583-.152-1.04-.455-1.369-.299-.33-.714-.494-1.244-.494-.36 0-.68.08-.96.238a1.659 1.659 0 0 0-.654.676c-.155.296-.233.654-.233 1.074z"/><path fill="#A1A3AA" d="M26.959 88v-8.727h3.196c.62 0 1.132.102 1.538.306.406.202.71.476.912.823.202.344.303.731.303 1.163 0 .364-.067.67-.2.92a1.65 1.65 0 0 1-.538.597 2.365 2.365 0 0 1-.733.324v.085c.29.015.573.108.848.282.279.17.509.413.69.728.183.316.274.7.274 1.151 0 .446-.105.847-.316 1.202-.207.352-.528.632-.963.84-.434.204-.99.306-1.666.306h-3.345zm1.317-1.13h1.9c.63 0 1.083-.121 1.355-.366.273-.244.41-.55.41-.916 0-.275-.07-.528-.21-.758a1.492 1.492 0 0 0-.596-.55 1.913 1.913 0 0 0-.912-.205h-1.947v2.796zm0-3.822h1.764c.295 0 .56-.056.797-.17.238-.114.427-.273.566-.477a1.26 1.26 0 0 0 .213-.733c0-.361-.126-.664-.379-.908s-.64-.367-1.163-.367h-1.798v2.655zm9.253 5.084c-.645 0-1.2-.138-1.666-.413a2.805 2.805 0 0 1-1.074-1.172c-.25-.506-.375-1.098-.375-1.777 0-.67.125-1.261.375-1.773.253-.511.605-.91 1.057-1.197.454-.287.986-.43 1.594-.43.369 0 .727.06 1.074.183a2.6 2.6 0 0 1 .933.575c.275.261.493.6.652 1.018.159.415.238.92.238 1.513v.452h-5.203v-.955h3.955a1.88 1.88 0 0 0-.205-.89 1.547 1.547 0 0 0-.575-.618 1.608 1.608 0 0 0-.86-.226c-.359 0-.671.088-.938.264-.265.173-.47.4-.614.682a1.969 1.969 0 0 0-.213.908v.745c0 .438.077.81.23 1.117.156.307.374.541.652.703.278.159.604.239.976.239a2 2 0 0 0 .66-.103 1.37 1.37 0 0 0 .848-.831l1.206.218c-.096.355-.27.666-.52.933a2.52 2.52 0 0 1-.933.618 3.493 3.493 0 0 1-1.274.217zM41.615 88v-.874l3.545-4.504v-.06h-3.43v-1.108h5.02v.93l-3.41 4.448v.06h3.529V88h-5.254zm6.757 0v-6.546h1.274V88h-1.274zm.644-7.555a.81.81 0 0 1-.571-.222.72.72 0 0 1-.235-.537c0-.21.078-.39.235-.537a.803.803 0 0 1 .57-.226c.222 0 .411.076.567.226.16.148.239.327.239.537 0 .207-.08.386-.239.537a.795.795 0 0 1-.566.222zm5.166 7.687c-.645 0-1.2-.138-1.667-.413a2.804 2.804 0 0 1-1.074-1.172c-.25-.506-.375-1.098-.375-1.777 0-.67.125-1.261.375-1.773.253-.511.605-.91 1.057-1.197.455-.287.986-.43 1.594-.43.37 0 .727.06 1.074.183.346.122.658.314.933.575.276.261.493.6.652 1.018.16.415.239.92.239 1.513v.452h-5.203v-.955h3.954c0-.335-.068-.632-.204-.89a1.547 1.547 0 0 0-.576-.618 1.608 1.608 0 0 0-.86-.226c-.358 0-.671.088-.938.264a1.77 1.77 0 0 0-.614.682 1.968 1.968 0 0 0-.213.908v.745c0 .438.077.81.23 1.117.157.307.374.541.652.703.279.159.604.239.976.239.242 0 .462-.034.66-.103a1.37 1.37 0 0 0 .848-.831l1.207.218c-.097.355-.27.666-.52.933a2.52 2.52 0 0 1-.933.618 3.492 3.492 0 0 1-1.275.217zM58.403 88v-6.546h1.232v1.04h.068c.12-.352.33-.629.63-.83a1.805 1.805 0 0 1 1.032-.308 5.432 5.432 0 0 1 .541.03v1.22a2.292 2.292 0 0 0-.273-.048c-.13-.02-.26-.03-.392-.03-.3 0-.57.064-.805.192a1.425 1.425 0 0 0-.758 1.283V88h-1.275z"/><rect width="136" height="32" x="118" y="68" fill="#2B2F3B" rx="8"/><path fill="#E4E5E9" d="M129.878 88.145c-.673-.003-1.249-.18-1.726-.533-.477-.352-.842-.865-1.095-1.538s-.379-1.484-.379-2.433c0-.946.126-1.755.379-2.425.256-.67.622-1.182 1.099-1.534.48-.353 1.054-.529 1.722-.529.667 0 1.24.178 1.717.533.477.352.843.864 1.095 1.534.256.668.384 1.475.384 2.42 0 .952-.127 1.765-.379 2.438-.253.67-.618 1.183-1.096 1.538-.477.353-1.051.529-1.721.529zm0-1.138c.591 0 1.052-.288 1.385-.865.335-.577.503-1.41.503-2.501 0-.725-.077-1.337-.23-1.837-.151-.503-.368-.883-.652-1.142a1.43 1.43 0 0 0-1.006-.392c-.588 0-1.05.29-1.385.87-.335.579-.504 1.413-.507 2.5 0 .728.075 1.343.226 1.846.153.5.37.88.652 1.138.281.255.619.383 1.014.383zm5.248 1.074a.826.826 0 0 1-.601-.247.824.824 0 0 1-.252-.605c0-.233.084-.432.252-.597a.82.82 0 0 1 .601-.251.82.82 0 0 1 .601.251.808.808 0 0 1 .251.597c0 .156-.04.3-.119.43a.883.883 0 0 1-.307.307.813.813 0 0 1-.426.115zm5.264.038c-.586 0-1.108-.1-1.569-.302a2.662 2.662 0 0 1-1.086-.84 2.223 2.223 0 0 1-.426-1.253h1.338c.017.259.103.483.26.674.159.187.366.332.622.434.255.103.54.154.852.154.344 0 .648-.06.912-.18.267-.118.476-.285.626-.498.151-.216.226-.464.226-.746 0-.292-.075-.55-.226-.77a1.467 1.467 0 0 0-.652-.53c-.284-.127-.627-.191-1.031-.191h-.737v-1.074h.737c.324 0 .608-.058.852-.175a1.39 1.39 0 0 0 .58-.485c.139-.21.209-.456.209-.738 0-.27-.061-.504-.183-.703-.12-.201-.29-.36-.512-.473a1.66 1.66 0 0 0-.775-.17c-.284 0-.55.052-.797.157-.245.103-.443.25-.597.444a1.14 1.14 0 0 0-.247.686h-1.274c.014-.472.153-.887.417-1.245.267-.358.62-.637 1.057-.839a3.444 3.444 0 0 1 1.458-.303c.559 0 1.042.11 1.449.328.409.216.724.505.946.866.224.36.335.755.332 1.184.003.489-.134.904-.409 1.245-.273.34-.637.57-1.091.686v.068c.579.088 1.028.318 1.347.69.321.372.48.834.477 1.385.003.48-.131.91-.401 1.291-.267.381-.632.68-1.095.9-.463.215-.993.323-1.589.323zm6.112-1.312-.063.464a7.454 7.454 0 0 1-.218 1.066 16.1 16.1 0 0 1-.311 1.035 28.7 28.7 0 0 1-.26.759h-.903l.153-.716c.066-.299.129-.632.192-1.002.062-.369.109-.745.141-1.129l.042-.477h1.227zm7.856 1.338c-.673-.003-1.248-.18-1.726-.533-.477-.352-.842-.865-1.095-1.538s-.379-1.484-.379-2.433c0-.946.126-1.755.379-2.425.256-.67.622-1.182 1.1-1.534.48-.353 1.054-.529 1.721-.529.668 0 1.24.178 1.718.533.477.352.842.864 1.095 1.534.255.668.383 1.475.383 2.42 0 .952-.126 1.765-.379 2.438-.253.67-.618 1.183-1.095 1.538-.477.353-1.051.529-1.722.529zm0-1.138c.591 0 1.053-.288 1.385-.865.335-.577.503-1.41.503-2.501 0-.725-.077-1.337-.23-1.837-.151-.503-.368-.883-.652-1.142a1.426 1.426 0 0 0-1.006-.392c-.588 0-1.049.29-1.385.87-.335.579-.504 1.413-.507 2.5 0 .728.076 1.343.226 1.846.154.5.371.88.652 1.138.281.255.619.383 1.014.383zm6.066-.2-.064.464a7.42 7.42 0 0 1-.217 1.066 16.1 16.1 0 0 1-.311 1.035 28.7 28.7 0 0 1-.26.759h-.903l.153-.716c.065-.299.129-.632.192-1.002.062-.369.109-.745.14-1.129l.043-.477h1.227zm7.856 1.338c-.673-.003-1.248-.18-1.726-.533-.477-.352-.842-.865-1.095-1.538s-.379-1.484-.379-2.433c0-.946.126-1.755.379-2.425.256-.67.622-1.182 1.1-1.534.48-.353 1.054-.529 1.721-.529.668 0 1.24.178 1.718.533.477.352.842.864 1.095 1.534.255.668.383 1.475.383 2.42 0 .952-.126 1.765-.379 2.438-.253.67-.618 1.183-1.095 1.538-.477.353-1.051.529-1.722.529zm0-1.138c.591 0 1.053-.288 1.385-.865.335-.577.503-1.41.503-2.501 0-.725-.077-1.337-.23-1.837-.151-.503-.368-.883-.652-1.142a1.428 1.428 0 0 0-1.006-.392c-.588 0-1.05.29-1.385.87-.335.579-.504 1.413-.507 2.5 0 .728.075 1.343.226 1.846.153.5.371.88.652 1.138.281.255.619.383 1.014.383zm6.066-.2-.064.464a7.42 7.42 0 0 1-.217 1.066 16.1 16.1 0 0 1-.311 1.035 28.7 28.7 0 0 1-.26.759h-.903c.036-.177.088-.415.153-.716.065-.299.129-.632.192-1.002.062-.369.109-.745.14-1.129l.043-.477h1.227zm8.129-7.534V88h-1.321v-7.406h-.051l-2.088 1.363v-1.261l2.177-1.423h1.283z"/><path fill="#A1A3AA" d="M26.528 124.406v-1.133h6.755v1.133H30.56V132h-1.313v-7.594h-2.719zM34.673 132v-6.545h1.274V132h-1.274zm.643-7.555a.81.81 0 0 1-.57-.222.722.722 0 0 1-.235-.537c0-.21.078-.389.234-.537.16-.15.35-.226.571-.226a.79.79 0 0 1 .567.226c.16.148.239.327.239.537 0 .207-.08.386-.239.537a.794.794 0 0 1-.567.222zM37.661 132v-6.545h1.223v1.065h.081c.137-.361.36-.642.67-.844.309-.204.68-.307 1.111-.307.438 0 .804.103 1.1.307.298.205.518.486.66.844h.069c.156-.35.404-.628.745-.835.341-.211.748-.316 1.22-.316.593 0 1.077.186 1.452.559.378.372.567.933.567 1.683V132h-1.274v-4.27c0-.443-.12-.764-.362-.963a1.317 1.317 0 0 0-.866-.298c-.414 0-.737.128-.967.383-.23.253-.345.578-.345.976V132h-1.27v-4.351c0-.355-.11-.64-.332-.856-.222-.216-.51-.324-.865-.324a1.24 1.24 0 0 0-.67.192 1.403 1.403 0 0 0-.49.524 1.602 1.602 0 0 0-.183.779V132h-1.274zm13.427.132c-.645 0-1.2-.138-1.666-.413a2.807 2.807 0 0 1-1.074-1.172c-.25-.506-.375-1.098-.375-1.777 0-.671.125-1.261.375-1.773a2.91 2.91 0 0 1 1.056-1.197c.455-.287.986-.431 1.594-.431.37 0 .727.061 1.074.184.347.122.658.313.933.575.276.261.493.601.652 1.018.16.415.239.919.239 1.513v.452h-5.203v-.955h3.954c0-.335-.068-.632-.204-.89a1.538 1.538 0 0 0-.575-.618 1.604 1.604 0 0 0-.861-.226c-.358 0-.67.088-.938.264a1.774 1.774 0 0 0-.613.682 1.968 1.968 0 0 0-.214.908v.745c0 .438.077.81.23 1.117.157.307.374.541.653.703.278.159.603.239.975.239.242 0 .462-.035.661-.103a1.366 1.366 0 0 0 .848-.831l1.206.218c-.097.355-.27.666-.52.933-.247.264-.558.47-.933.618a3.49 3.49 0 0 1-1.274.217z"/><rect width="62" height="32" x="118" y="112" fill="#2B2F3B" rx="8"/><path fill="#E4E5E9" d="M130.151 123.273V132h-1.321v-7.406h-.052l-2.088 1.363v-1.261l2.178-1.423h1.283z"/><path fill="#A1A3AA" d="M169.858 126.545a1.115 1.115 0 0 0-.519-.838c-.303-.198-.674-.298-1.115-.298-.322 0-.603.052-.845.156a1.36 1.36 0 0 0-.561.43 1.032 1.032 0 0 0-.199.621.88.88 0 0 0 .139.501c.095.137.215.252.362.345.147.09.301.164.462.223.161.057.309.103.444.139l.738.199c.19.049.4.118.632.206.235.087.458.207.671.358.216.15.393.341.533.576.14.234.21.522.21.863 0 .393-.103.748-.309 1.065-.204.317-.502.569-.895.756-.391.187-.865.281-1.424.281-.521 0-.972-.084-1.353-.252a2.16 2.16 0 0 1-.895-.703 2.017 2.017 0 0 1-.366-1.048h.909c.024.275.116.502.277.682.164.177.37.31.618.398.251.085.521.127.81.127.336 0 .638-.054.905-.163.268-.111.48-.265.636-.462.156-.198.234-.43.234-.696 0-.241-.067-.438-.202-.589a1.474 1.474 0 0 0-.533-.369 5.563 5.563 0 0 0-.713-.249l-.895-.256c-.569-.163-1.018-.396-1.35-.699-.331-.303-.497-.7-.497-1.19 0-.407.11-.762.33-1.065.223-.306.521-.542.895-.71a3.017 3.017 0 0 1 1.261-.256c.469 0 .885.084 1.25.252.364.166.653.393.866.682.216.289.329.617.341.983h-.852z"/><rect width="62" height="2" x="192" y="127" fill="#2B2F3B" rx="1"/><rect width="24" height="2" x="192" y="127" fill="#918CED" rx="1"/><circle cx="215" cy="128" r="5" fill="#fff"/><path fill="#A1A3AA" d="M29.784 176H26.96v-8.727h2.915c.855 0 1.59.174 2.203.524a3.45 3.45 0 0 1 1.41 1.496c.33.647.494 1.424.494 2.331 0 .909-.166 1.69-.498 2.343a3.496 3.496 0 0 1-1.432 1.509c-.625.349-1.38.524-2.267.524zm-1.508-1.151h1.436c.664 0 1.217-.125 1.657-.375.44-.252.77-.617.989-1.095.219-.48.328-1.065.328-1.755 0-.685-.11-1.266-.328-1.743a2.315 2.315 0 0 0-.967-1.087c-.43-.247-.962-.371-1.598-.371h-1.517v6.426zm10.062 1.283c-.645 0-1.2-.138-1.666-.413a2.807 2.807 0 0 1-1.074-1.172c-.25-.506-.375-1.098-.375-1.777 0-.671.125-1.261.375-1.773a2.91 2.91 0 0 1 1.056-1.197c.455-.287.986-.431 1.594-.431.37 0 .727.061 1.074.184.347.122.658.313.933.575.276.261.493.601.652 1.018.16.415.239.919.239 1.513v.452h-5.203v-.955h3.954c0-.335-.068-.632-.204-.89a1.538 1.538 0 0 0-.575-.618 1.604 1.604 0 0 0-.861-.226c-.358 0-.67.088-.938.264a1.774 1.774 0 0 0-.613.682 1.968 1.968 0 0 0-.214.908v.745c0 .438.077.81.23 1.117.157.307.374.541.653.703.278.159.603.239.975.239.242 0 .462-.035.661-.103a1.366 1.366 0 0 0 .848-.831l1.206.218c-.097.355-.27.666-.52.933-.247.264-.558.47-.933.618a3.49 3.49 0 0 1-1.274.217zm5.496-8.859V176H42.56v-8.727h1.274zm3.619 8.872c-.415 0-.79-.077-1.125-.23a1.89 1.89 0 0 1-.797-.678c-.193-.295-.29-.657-.29-1.086 0-.37.071-.674.213-.912.142-.239.334-.428.575-.567a3.01 3.01 0 0 1 .81-.315 8.07 8.07 0 0 1 .912-.162l.955-.111c.244-.031.421-.081.532-.149.111-.069.166-.179.166-.333v-.03c0-.372-.105-.66-.315-.865-.207-.204-.517-.306-.929-.306-.429 0-.767.095-1.014.285-.244.188-.413.396-.507.626l-1.198-.272a2.3 2.3 0 0 1 .623-.963c.275-.247.592-.426.95-.537a3.7 3.7 0 0 1 1.13-.171c.26 0 .538.032.83.094.296.06.571.171.827.332.258.162.47.394.635.695.164.298.247.686.247 1.163V176h-1.244v-.895h-.052a1.808 1.808 0 0 1-.37.486 1.969 1.969 0 0 1-.635.396 2.465 2.465 0 0 1-.93.158zm.277-1.023c.352 0 .653-.069.903-.209.253-.139.445-.321.575-.545.134-.227.2-.47.2-.729v-.844a.646.646 0 0 1-.264.128c-.127.037-.274.07-.438.098l-.482.073-.392.051a3.135 3.135 0 0 0-.678.158c-.201.073-.363.18-.485.319-.12.137-.18.318-.18.546 0 .315.117.554.35.716.233.159.53.238.89.238zm5.221 3.333c-.19 0-.364-.016-.52-.047a1.676 1.676 0 0 1-.35-.094l.307-1.044c.233.062.44.089.623.081a.747.747 0 0 0 .481-.205c.142-.128.267-.336.375-.626l.158-.435-2.395-6.63h1.364l1.657 5.079h.068l1.658-5.079h1.368l-2.697 7.419a2.98 2.98 0 0 1-.478.865 1.867 1.867 0 0 1-.69.537 2.264 2.264 0 0 1-.929.179z"/><rect width="62" height="32" x="118" y="156" fill="#2B2F3B" rx="8"/><path fill="#E4E5E9" d="M129.878 176.145c-.673-.003-1.249-.181-1.726-.533-.477-.352-.842-.865-1.095-1.538s-.379-1.485-.379-2.433c0-.946.126-1.755.379-2.425.256-.671.622-1.182 1.099-1.534.48-.352 1.054-.529 1.722-.529.667 0 1.24.178 1.717.533.477.352.843.864 1.095 1.534.256.668.384 1.475.384 2.421 0 .951-.127 1.764-.379 2.437-.253.671-.618 1.183-1.096 1.538-.477.353-1.051.529-1.721.529zm0-1.138c.591 0 1.052-.288 1.385-.865.335-.577.503-1.41.503-2.501 0-.725-.077-1.337-.23-1.837-.151-.503-.368-.884-.652-1.142a1.43 1.43 0 0 0-1.006-.392c-.588 0-1.05.29-1.385.869-.335.58-.504 1.414-.507 2.502 0 .727.075 1.342.226 1.845.153.5.37.879.652 1.138.281.255.619.383 1.014.383z"/><path fill="#A1A3AA" d="M169.858 170.545a1.115 1.115 0 0 0-.519-.838c-.303-.198-.674-.298-1.115-.298-.322 0-.603.052-.845.156a1.36 1.36 0 0 0-.561.43 1.032 1.032 0 0 0-.199.621.88.88 0 0 0 .139.501c.095.137.215.252.362.345.147.09.301.164.462.223.161.057.309.103.444.139l.738.199c.19.049.4.118.632.206.235.087.458.207.671.358.216.15.393.341.533.576.14.234.21.522.21.863 0 .393-.103.748-.309 1.065-.204.317-.502.569-.895.756-.391.187-.865.281-1.424.281-.521 0-.972-.084-1.353-.252a2.16 2.16 0 0 1-.895-.703 2.017 2.017 0 0 1-.366-1.048h.909c.024.275.116.502.277.682.164.177.37.31.618.398.251.085.521.127.81.127.336 0 .638-.054.905-.163.268-.111.48-.265.636-.462.156-.198.234-.43.234-.696 0-.241-.067-.438-.202-.589a1.474 1.474 0 0 0-.533-.369 5.563 5.563 0 0 0-.713-.249l-.895-.256c-.569-.163-1.018-.396-1.35-.699-.331-.303-.497-.7-.497-1.19 0-.407.11-.762.33-1.065.223-.306.521-.542.895-.71a3.017 3.017 0 0 1 1.261-.256c.469 0 .885.084 1.25.252.364.166.653.393.866.682.216.289.329.617.341.983h-.852z"/><rect width="62" height="2" x="192" y="171" fill="#2B2F3B" rx="1"/><circle cx="197" cy="172" r="5" fill="#fff"/><path fill="#A1A3AA" d="M26.959 220v-8.727h3.11c.68 0 1.242.123 1.688.37.446.248.78.586 1.001 1.015.222.426.333.906.333 1.44 0 .537-.112 1.02-.337 1.449a2.436 2.436 0 0 1-1.005 1.014c-.446.247-1.008.371-1.684.371h-2.139v-1.117h2.02c.429 0 .777-.074 1.044-.221.267-.151.463-.355.588-.614.125-.258.188-.552.188-.882 0-.33-.063-.622-.188-.878a1.344 1.344 0 0 0-.592-.601c-.267-.145-.62-.217-1.057-.217h-1.653V220h-1.317zm7.573 0v-6.545h1.232v1.039h.068c.12-.352.33-.629.63-.831a1.808 1.808 0 0 1 1.032-.306 5.054 5.054 0 0 1 .541.029v1.219a2.315 2.315 0 0 0-.273-.047c-.13-.02-.26-.03-.392-.03-.3 0-.57.064-.805.192a1.427 1.427 0 0 0-.758 1.283V220h-1.275zm7.192.132c-.644 0-1.2-.138-1.666-.413a2.807 2.807 0 0 1-1.074-1.172c-.25-.506-.375-1.098-.375-1.777 0-.671.125-1.261.375-1.773.253-.511.605-.91 1.057-1.197.455-.287.986-.431 1.594-.431.37 0 .727.061 1.074.184.346.122.657.313.933.575.276.261.493.601.652 1.018.16.415.239.919.239 1.513v.452H39.33v-.955h3.954c0-.335-.068-.632-.204-.89a1.539 1.539 0 0 0-.576-.618 1.604 1.604 0 0 0-.86-.226c-.358 0-.671.088-.938.264a1.774 1.774 0 0 0-.614.682 1.968 1.968 0 0 0-.213.908v.745c0 .438.077.81.23 1.117.157.307.374.541.652.703.279.159.604.239.976.239.242 0 .462-.035.66-.103a1.367 1.367 0 0 0 .848-.831l1.207.218c-.097.355-.27.666-.52.933-.247.264-.558.47-.933.618a3.49 3.49 0 0 1-1.275.217zm9.634-6.677L48.985 220H47.62l-2.378-6.545h1.368l1.658 5.036h.068l1.653-5.036h1.368zM52.556 220v-6.545h1.274V220h-1.274zm.643-7.555a.81.81 0 0 1-.57-.222.722.722 0 0 1-.235-.537c0-.21.078-.389.234-.537.16-.15.35-.226.571-.226a.79.79 0 0 1 .567.226c.16.148.239.327.239.537 0 .207-.08.386-.239.537a.794.794 0 0 1-.567.222zm5.166 7.687c-.645 0-1.2-.138-1.666-.413a2.806 2.806 0 0 1-1.074-1.172c-.25-.506-.375-1.098-.375-1.777 0-.671.125-1.261.375-1.773.253-.511.605-.91 1.057-1.197.454-.287.986-.431 1.594-.431.369 0 .727.061 1.073.184.347.122.658.313.934.575.275.261.493.601.652 1.018.159.415.238.919.238 1.513v.452H55.97v-.955h3.955c0-.335-.069-.632-.205-.89a1.54 1.54 0 0 0-.575-.618 1.604 1.604 0 0 0-.86-.226c-.359 0-.671.088-.938.264a1.773 1.773 0 0 0-.614.682 1.967 1.967 0 0 0-.213.908v.745c0 .438.077.81.23 1.117.156.307.374.541.652.703.278.159.604.239.976.239.241 0 .462-.035.66-.103a1.366 1.366 0 0 0 .848-.831l1.206.218c-.096.355-.27.666-.52.933-.247.264-.558.47-.933.618a3.49 3.49 0 0 1-1.274.217zm5.63-.132-1.927-6.545h1.317l1.283 4.806h.063l1.288-4.806h1.316l1.279 4.785h.064l1.274-4.785h1.317L69.347 220h-1.3l-1.33-4.726h-.098L65.29 220h-1.295z"/><rect width="136" height="32" x="118" y="200" fill="#918CED" rx="8"/><rect width="20" height="20" x="124" y="206" fill="#fff" rx="4"/></svg>