
<svg xmlns="http://www.w3.org/2000/svg" width="280" height="256" fill="none"><rect width="280" height="256" fill="#20232C" rx="16"/><path fill="#E4E5E9" d="M31.472 31.563c-.053-.497-.277-.883-.67-1.16-.391-.276-.899-.414-1.524-.414-.439 0-.816.066-1.13.198-.315.133-.555.313-.722.54a1.312 1.312 0 0 0-.255.779c0 .242.054.452.164.63.114.178.267.33.46.455.194.121.408.223.642.307.235.083.472.153.71.21l1.092.273c.439.102.861.24 1.267.414.409.175.774.394 1.096.66.326.265.584.585.773.96.19.375.284.814.284 1.318 0 .682-.174 1.282-.523 1.801-.348.515-.852.919-1.511 1.21-.655.288-1.449.432-2.38.432-.906 0-1.692-.14-2.359-.42-.662-.28-1.181-.69-1.556-1.228-.372-.538-.572-1.193-.603-1.965h2.074c.03.405.155.742.375 1.01.22.27.506.47.858.603a3.39 3.39 0 0 0 1.193.199c.459 0 .86-.068 1.205-.205.348-.14.621-.333.818-.58a1.4 1.4 0 0 0 .301-.874c-.004-.303-.093-.553-.267-.75-.174-.2-.418-.367-.733-.5a7.051 7.051 0 0 0-1.09-.364l-1.325-.34c-.958-.247-1.715-.62-2.272-1.12-.553-.504-.83-1.172-.83-2.006 0-.685.186-1.286.557-1.8.375-.516.884-.915 1.528-1.2.644-.287 1.373-.431 2.188-.431.826 0 1.55.144 2.17.431.625.285 1.116.68 1.472 1.188.356.504.54 1.083.551 1.738h-2.028zm7.782 8.607c-.871 0-1.62-.19-2.244-.573a3.833 3.833 0 0 1-1.438-1.586c-.333-.678-.5-1.458-.5-2.34 0-.887.17-1.67.512-2.347a3.816 3.816 0 0 1 1.443-1.591c.625-.383 1.364-.574 2.216-.574.708 0 1.335.13 1.88.392.55.258.987.623 1.313 1.097.326.47.511 1.019.557 1.647h-1.966a1.88 1.88 0 0 0-.568-1.05c-.296-.285-.692-.427-1.188-.427-.42 0-.79.114-1.108.341-.318.224-.566.546-.744.966-.174.42-.261.924-.261 1.511 0 .595.087 1.106.261 1.534.174.425.419.752.733.983a1.87 1.87 0 0 0 1.12.341c.302 0 .573-.056.812-.17.242-.118.445-.286.608-.506.163-.22.274-.487.335-.801h1.966a3.427 3.427 0 0 1-.546 1.642 3.23 3.23 0 0 1-1.284 1.114c-.541.265-1.178.397-1.909.397zm5.428-.17v-8.727h1.994v1.454h.091c.16-.503.432-.892.818-1.164.39-.277.835-.415 1.335-.415.114 0 .241.005.381.017.144.007.263.02.358.04v1.892a2.168 2.168 0 0 0-.415-.08 3.818 3.818 0 0 0-.54-.04 2.08 2.08 0 0 0-1.01.245c-.296.159-.53.38-.7.664-.17.284-.255.612-.255.983V40h-2.057zm9.791.17c-.852 0-1.59-.187-2.216-.562a3.82 3.82 0 0 1-1.454-1.574c-.341-.674-.512-1.462-.512-2.364 0-.901.17-1.69.512-2.369a3.812 3.812 0 0 1 1.454-1.58c.625-.374 1.364-.562 2.216-.562.852 0 1.59.188 2.216.563a3.775 3.775 0 0 1 1.449 1.58c.345.677.517 1.467.517 2.368 0 .902-.172 1.69-.517 2.364a3.783 3.783 0 0 1-1.45 1.574c-.624.375-1.363.563-2.215.563zm.011-1.647c.462 0 .849-.127 1.16-.381.31-.258.541-.602.693-1.034.155-.432.233-.913.233-1.443 0-.534-.078-1.017-.233-1.45-.152-.435-.383-.781-.694-1.039-.31-.257-.697-.386-1.159-.386-.473 0-.867.129-1.181.386-.311.258-.544.604-.7 1.04a4.356 4.356 0 0 0-.227 1.449c0 .53.076 1.011.228 1.443.155.432.388.777.699 1.034.314.254.708.38 1.181.38zm7.973-10.16V40h-2.056V28.364h2.056zm4.172 0V40h-2.057V28.364h2.057zm5.664 1.768v-1.767h9.284v1.767H77.98V40h-2.09v-9.87h-3.597zM82.369 40v-8.727h1.995v1.454h.09c.16-.503.432-.892.819-1.164.39-.277.835-.415 1.335-.415.114 0 .24.005.38.017.145.007.264.02.359.04v1.892a2.168 2.168 0 0 0-.415-.08 3.818 3.818 0 0 0-.54-.04 2.08 2.08 0 0 0-1.011.245c-.296.159-.529.38-.7.664-.17.284-.255.612-.255.983V40H82.37zm8.7.176a3.64 3.64 0 0 1-1.495-.295 2.436 2.436 0 0 1-1.046-.887c-.253-.39-.38-.87-.38-1.443 0-.492.09-.9.273-1.221.181-.322.43-.58.744-.773a3.754 3.754 0 0 1 1.062-.438 8.643 8.643 0 0 1 1.233-.221c.512-.053.926-.1 1.245-.142.318-.046.549-.114.693-.205.148-.095.221-.24.221-.437v-.034c0-.428-.127-.76-.38-.995-.254-.235-.62-.352-1.097-.352-.504 0-.903.11-1.199.33-.291.22-.489.479-.59.778l-1.921-.273c.151-.53.401-.973.75-1.33.348-.36.774-.628 1.278-.806a4.891 4.891 0 0 1 1.67-.273c.421 0 .84.05 1.256.148.417.098.798.261 1.142.489.345.223.622.528.83.914.212.387.318.87.318 1.45V40H93.7v-1.199h-.068a2.51 2.51 0 0 1-.529.682 2.542 2.542 0 0 1-.846.506c-.337.125-.733.187-1.188.187zm.533-1.511c.413 0 .771-.082 1.074-.245a1.8 1.8 0 0 0 .699-.659c.167-.272.25-.57.25-.892v-1.028a.967.967 0 0 1-.33.148 4.66 4.66 0 0 1-.51.119c-.19.034-.378.064-.563.09l-.483.069c-.307.042-.582.11-.824.205a1.369 1.369 0 0 0-.574.397c-.14.167-.21.383-.21.648 0 .379.138.665.415.858.276.193.628.29 1.056.29zm8.2-3.779V40h-2.058v-8.727h1.966v1.483h.103c.2-.489.52-.877.96-1.165.443-.288.99-.432 1.642-.432.602 0 1.127.129 1.574.387.45.257.799.63 1.045 1.119.25.488.373 1.081.369 1.778V40h-2.056v-5.239c0-.583-.152-1.04-.455-1.369-.299-.33-.714-.494-1.244-.494-.36 0-.68.08-.96.238a1.659 1.659 0 0 0-.654.676c-.155.296-.233.654-.233 1.074zm14.59-1.306-1.875.204a1.515 1.515 0 0 0-.278-.534 1.383 1.383 0 0 0-.523-.403 1.906 1.906 0 0 0-.807-.154c-.428 0-.788.093-1.079.279-.288.185-.43.426-.427.721a.756.756 0 0 0 .279.62c.193.159.511.29.954.392l1.489.318c.826.178 1.439.46 1.841.846.405.387.61.892.614 1.517a2.376 2.376 0 0 1-.483 1.455c-.315.417-.752.742-1.313.977-.561.235-1.204.352-1.932.352-1.068 0-1.928-.223-2.579-.67-.652-.45-1.04-1.078-1.165-1.88l2.006-.194c.091.394.284.691.579.892.296.2.68.301 1.154.301.488 0 .88-.1 1.176-.3.299-.202.449-.45.449-.745a.776.776 0 0 0-.29-.62c-.19-.162-.485-.287-.887-.374l-1.488-.313c-.837-.174-1.457-.468-1.858-.88-.402-.417-.601-.944-.597-1.58-.004-.538.142-1.004.438-1.398.299-.398.714-.704 1.244-.92.534-.22 1.15-.33 1.847-.33 1.022 0 1.827.218 2.414.654.591.435.957 1.024 1.097 1.767zm6.304-2.307v1.59h-5.159v-1.59h5.159zM116.827 40v-9.551c0-.587.121-1.076.363-1.466.247-.39.576-.682.989-.875.413-.193.871-.29 1.375-.29.356 0 .672.029.949.085.276.057.481.108.613.154l-.409 1.59a3.581 3.581 0 0 0-.329-.079 1.993 1.993 0 0 0-.443-.045c-.383 0-.654.093-.813.278-.155.182-.233.443-.233.784V40h-2.062zm8.959.17c-.853 0-1.591-.187-2.216-.562a3.823 3.823 0 0 1-1.455-1.574c-.341-.674-.511-1.462-.511-2.364 0-.901.17-1.69.511-2.369a3.815 3.815 0 0 1 1.455-1.58c.625-.374 1.363-.562 2.216-.562.852 0 1.59.188 2.215.563a3.775 3.775 0 0 1 1.449 1.58c.345.677.517 1.467.517 2.368 0 .902-.172 1.69-.517 2.364a3.783 3.783 0 0 1-1.449 1.574c-.625.375-1.363.563-2.215.563zm.011-1.647c.462 0 .848-.127 1.159-.381.311-.258.542-.602.693-1.034.155-.432.233-.913.233-1.443 0-.534-.078-1.017-.233-1.45-.151-.435-.382-.781-.693-1.039-.311-.257-.697-.386-1.159-.386-.474 0-.868.129-1.182.386-.311.258-.544.604-.699 1.04a4.369 4.369 0 0 0-.227 1.449c0 .53.076 1.011.227 1.443.155.432.388.777.699 1.034.314.254.708.38 1.182.38zM131.713 40v-8.727h1.994v1.454h.091c.159-.503.432-.892.818-1.164a2.256 2.256 0 0 1 1.336-.415c.113 0 .24.005.38.017.144.007.264.02.358.04v1.892a2.162 2.162 0 0 0-.414-.08 3.828 3.828 0 0 0-.54-.04c-.375 0-.712.082-1.012.245-.295.159-.528.38-.698.664a1.868 1.868 0 0 0-.256.983V40h-2.057zm6.344 0v-8.727h1.966v1.483h.102c.182-.5.483-.89.903-1.17.421-.285.923-.427 1.506-.427.591 0 1.089.144 1.494.432.41.284.697.672.864 1.165h.091c.193-.485.519-.872.977-1.16.462-.291 1.01-.437 1.642-.437.803 0 1.459.254 1.966.762.508.507.762 1.248.762 2.221V40h-2.063v-5.54c0-.541-.144-.937-.432-1.187a1.542 1.542 0 0 0-1.057-.381c-.496 0-.884.155-1.164.466-.277.307-.415.706-.415 1.199V40h-2.017v-5.625c0-.45-.137-.81-.409-1.08-.269-.269-.621-.403-1.057-.403-.296 0-.564.076-.807.227a1.58 1.58 0 0 0-.579.631 1.969 1.969 0 0 0-.216.943V40h-2.057z"/><path fill="#A1A3AA" d="M26.528 80.406v-1.133h6.755v1.133H30.56V88h-1.313v-7.594h-2.719zM33.993 88v-6.546h1.232v1.04h.068c.12-.352.33-.629.63-.83a1.804 1.804 0 0 1 1.032-.308 5.44 5.44 0 0 1 .541.03v1.22a2.296 2.296 0 0 0-.273-.048c-.13-.02-.261-.03-.392-.03-.3 0-.57.064-.805.192a1.425 1.425 0 0 0-.759 1.283V88h-1.274zm4.606 0v-6.546h1.274V88h-1.274zm.643-7.555a.81.81 0 0 1-.57-.222.72.72 0 0 1-.235-.537c0-.21.078-.39.234-.537.16-.15.35-.226.571-.226a.79.79 0 0 1 .567.226.707.707 0 0 1 .239.537c0 .207-.08.386-.24.537a.795.795 0 0 1-.566.222zm5.09 10.146c-.52 0-.968-.068-1.343-.205a2.6 2.6 0 0 1-.912-.54 2.272 2.272 0 0 1-.528-.738l1.095-.452c.077.125.179.257.307.397.13.142.306.262.528.362.224.1.513.149.865.149.483 0 .882-.118 1.197-.354.316-.233.474-.605.474-1.116v-1.287h-.081a2.911 2.911 0 0 1-.333.464c-.142.17-.338.319-.588.444-.25.124-.575.187-.976.187-.517 0-.983-.12-1.397-.362a2.566 2.566 0 0 1-.98-1.078c-.24-.478-.358-1.064-.358-1.76s.117-1.293.353-1.79c.239-.497.566-.878.98-1.142.415-.267.885-.4 1.41-.4.407 0 .735.067.985.204.25.133.445.29.584.469.142.179.251.336.328.473h.094v-1.062h1.248v6.69c0 .563-.13 1.025-.392 1.386a2.31 2.31 0 0 1-1.06.801c-.444.173-.944.26-1.5.26zm-.014-3.746c.367 0 .677-.085.93-.255.255-.174.448-.421.58-.742.133-.324.2-.712.2-1.163 0-.44-.066-.829-.197-1.164a1.729 1.729 0 0 0-.575-.784c-.253-.19-.565-.285-.938-.285-.383 0-.703.1-.958.298a1.799 1.799 0 0 0-.58.801 3.183 3.183 0 0 0-.192 1.134c0 .429.066.805.196 1.129.131.324.324.577.58.758.259.182.577.273.955.273zm7.42 3.746c-.52 0-.968-.068-1.343-.205a2.601 2.601 0 0 1-.912-.54 2.274 2.274 0 0 1-.528-.738l1.095-.452c.077.125.179.257.307.397.13.142.307.262.528.362.225.1.513.149.865.149.483 0 .883-.118 1.198-.354.315-.233.473-.605.473-1.116v-1.287h-.081a2.911 2.911 0 0 1-.333.464c-.142.17-.338.319-.588.444-.25.124-.575.187-.975.187a2.72 2.72 0 0 1-1.398-.362c-.412-.245-.739-.604-.98-1.078-.239-.478-.358-1.064-.358-1.76s.118-1.293.353-1.79c.24-.497.566-.878.98-1.142.415-.267.886-.4 1.411-.4.406 0 .734.067.984.204.25.133.445.29.584.469.142.179.252.336.328.473h.094v-1.062h1.249v6.69c0 .563-.131 1.025-.392 1.386-.262.36-.615.628-1.061.801-.444.173-.944.26-1.5.26zm-.013-3.746c.366 0 .676-.085.929-.255.255-.174.449-.421.58-.742.133-.324.2-.712.2-1.163 0-.44-.066-.829-.196-1.164a1.73 1.73 0 0 0-.576-.784c-.253-.19-.565-.285-.937-.285-.384 0-.703.1-.959.298a1.8 1.8 0 0 0-.58.801 3.185 3.185 0 0 0-.191 1.134c0 .429.065.805.196 1.129.13.324.324.577.58.758.258.182.576.273.954.273zm7.495 1.287c-.644 0-1.2-.138-1.666-.413a2.805 2.805 0 0 1-1.074-1.172c-.25-.506-.374-1.098-.374-1.777 0-.67.124-1.261.374-1.773a2.92 2.92 0 0 1 1.057-1.197c.455-.287.986-.43 1.594-.43.37 0 .727.06 1.074.183a2.6 2.6 0 0 1 .933.575c.276.261.493.6.652 1.018.16.415.239.92.239 1.513v.452h-5.203v-.955h3.954a1.88 1.88 0 0 0-.204-.89 1.547 1.547 0 0 0-.576-.618 1.608 1.608 0 0 0-.86-.226c-.358 0-.67.088-.938.264a1.77 1.77 0 0 0-.614.682 1.969 1.969 0 0 0-.213.908v.745c0 .438.077.81.23 1.117.157.307.374.541.653.703.278.159.603.239.975.239.242 0 .462-.034.66-.103a1.37 1.37 0 0 0 .848-.831l1.207.218c-.097.355-.27.666-.52.933a2.52 2.52 0 0 1-.933.618 3.493 3.493 0 0 1-1.274.217zM63.444 88v-6.546h1.231v1.04h.068c.12-.352.33-.629.63-.83a1.804 1.804 0 0 1 1.032-.308 5.436 5.436 0 0 1 .541.03v1.22a2.292 2.292 0 0 0-.272-.048 2.597 2.597 0 0 0-.392-.03c-.302 0-.57.064-.806.192a1.425 1.425 0 0 0-.758 1.283V88h-1.274z"/><rect width="135" height="31" x="118.5" y="68.5" fill="#2B2F3B" rx="7.5"/><path fill="#E4E5E9" d="M134.54 83.636c0 .932-.171 1.733-.512 2.404-.34.667-.808 1.182-1.402 1.542-.59.358-1.262.537-2.015.537-.756 0-1.431-.179-2.024-.537-.591-.36-1.057-.876-1.398-1.546-.341-.67-.511-1.47-.511-2.4 0-.931.17-1.731.511-2.399.341-.67.807-1.184 1.398-1.542.593-.361 1.268-.542 2.024-.542.753 0 1.425.18 2.015.542.594.358 1.062.872 1.402 1.542.341.668.512 1.468.512 2.4zm-1.304 0c0-.71-.115-1.308-.345-1.794-.228-.488-.54-.858-.938-1.108a2.434 2.434 0 0 0-1.342-.379c-.503 0-.952.126-1.347.38-.395.25-.707.619-.937 1.107-.228.486-.341 1.084-.341 1.794s.113 1.31.341 1.799c.23.486.542.855.937 1.108.395.25.844.375 1.347.375.5 0 .947-.125 1.342-.375.398-.253.71-.623.938-1.108.23-.489.345-1.088.345-1.799zm4.117.478V88h-1.274v-6.546h1.223v1.066h.081c.151-.347.387-.625.708-.835.323-.21.731-.316 1.223-.316.446 0 .836.094 1.171.282.336.184.596.46.78.826.185.367.277.82.277 1.36V88h-1.274v-4.01c0-.474-.123-.845-.371-1.112-.247-.27-.586-.405-1.018-.405-.296 0-.558.064-.788.192a1.379 1.379 0 0 0-.542.562c-.13.245-.196.54-.196.887zm13.936-2.549a1.245 1.245 0 0 0-.562-.937c-.33-.225-.745-.337-1.245-.337a2.32 2.32 0 0 0-.929.17 1.441 1.441 0 0 0-.609.46 1.087 1.087 0 0 0-.213.661.97.97 0 0 0 .145.537c.099.15.228.277.387.38.162.099.336.183.52.251.185.065.363.12.533.162l.852.221c.279.069.564.161.857.278.292.116.564.27.814.46s.451.426.605.707c.156.281.234.618.234 1.01 0 .494-.128.933-.383 1.317-.253.383-.621.686-1.104.907-.48.222-1.061.333-1.743.333-.653 0-1.219-.104-1.696-.311-.477-.208-.851-.502-1.121-.882-.269-.384-.419-.838-.447-1.364h1.321c.026.315.128.578.307.788.182.208.413.363.694.465.284.1.596.15.934.15.372 0 .703-.06.993-.176.292-.119.522-.284.69-.494.167-.213.251-.462.251-.746a.918.918 0 0 0-.221-.635 1.642 1.642 0 0 0-.593-.409 5.804 5.804 0 0 0-.839-.285l-1.031-.281c-.699-.19-1.253-.47-1.662-.84-.407-.37-.61-.858-.61-1.466 0-.503.137-.942.409-1.317a2.687 2.687 0 0 1 1.108-.873 3.8 3.8 0 0 1 1.577-.316c.591 0 1.112.104 1.564.311a2.64 2.64 0 0 1 1.074.857c.261.36.398.776.409 1.244h-1.27zm5.618 6.567c-.634 0-1.179-.143-1.637-.43a2.85 2.85 0 0 1-1.048-1.198c-.244-.508-.367-1.09-.367-1.747 0-.665.125-1.251.375-1.76.25-.511.603-.91 1.057-1.197.455-.287.99-.43 1.607-.43.497 0 .94.092 1.329.276.39.182.703.438.942.767.242.33.385.715.431 1.155h-1.241a1.486 1.486 0 0 0-.468-.792c-.242-.222-.566-.333-.972-.333-.355 0-.666.094-.933.281-.264.185-.47.45-.618.793-.148.341-.222.744-.222 1.21 0 .477.073.89.218 1.236.145.347.349.615.613.806.267.19.581.285.942.285.242 0 .46-.044.656-.132.199-.091.365-.22.499-.388a1.47 1.47 0 0 0 .285-.605h1.241a2.417 2.417 0 0 1-.414 1.133c-.23.333-.538.594-.925.785-.383.19-.833.285-1.35.285zm4.051-.132v-6.546h1.232v1.04h.068a1.58 1.58 0 0 1 .63-.83 1.806 1.806 0 0 1 1.032-.308 5.445 5.445 0 0 1 .541.03v1.22a2.285 2.285 0 0 0-.273-.048c-.13-.02-.261-.03-.392-.03a1.66 1.66 0 0 0-.805.192 1.422 1.422 0 0 0-.759 1.283V88h-1.274zm7.128.132c-.613 0-1.149-.14-1.606-.422a2.843 2.843 0 0 1-1.066-1.18c-.252-.506-.379-1.097-.379-1.773 0-.679.127-1.273.379-1.781a2.837 2.837 0 0 1 1.066-1.185c.457-.281.993-.422 1.606-.422.614 0 1.149.14 1.607.422.457.281.812.676 1.065 1.185.253.508.379 1.102.379 1.781 0 .676-.126 1.267-.379 1.773a2.85 2.85 0 0 1-1.065 1.18c-.458.282-.993.422-1.607.422zm.005-1.07c.397 0 .727-.105.988-.315.262-.21.455-.49.58-.84a3.33 3.33 0 0 0 .191-1.154c0-.418-.063-.801-.191-1.15a1.87 1.87 0 0 0-.58-.849c-.261-.213-.591-.32-.988-.32-.401 0-.733.107-.998.32a1.898 1.898 0 0 0-.583.848c-.125.35-.188.733-.188 1.15 0 .421.063.806.188 1.156.127.35.322.629.583.84.265.21.597.314.998.314zm5.743-7.79V88h-1.274v-8.727h1.274zm2.988 0V88h-1.274v-8.727h1.274z"/><path stroke="#A1A3AA" stroke-linecap="round" stroke-linejoin="round" stroke-width="1.5" d="m237 82.5 3 3 3-3"/><rect width="135" height="31" x="118.5" y="68.5" stroke="#918CED" rx="7.5"/><path fill="#A1A3AA" d="M26.959 132v-8.727h5.412v1.133h-4.095v2.659h3.707v1.13h-3.707V132h-1.317zm6.847 0v-6.545h1.231v1.039h.069c.119-.352.329-.629.63-.831a1.808 1.808 0 0 1 1.031-.306 5.06 5.06 0 0 1 .542.029v1.219a2.312 2.312 0 0 0-.273-.047c-.13-.02-.261-.03-.392-.03-.301 0-.57.064-.806.192a1.428 1.428 0 0 0-.758 1.283V132h-1.274zm7.128.132c-.614 0-1.15-.141-1.607-.422a2.84 2.84 0 0 1-1.065-1.18c-.253-.506-.38-1.097-.38-1.773 0-.679.127-1.273.38-1.781a2.835 2.835 0 0 1 1.065-1.185c.458-.281.993-.422 1.607-.422s1.15.141 1.607.422c.457.281.812.676 1.065 1.185.253.508.38 1.102.38 1.781 0 .676-.127 1.267-.38 1.773a2.84 2.84 0 0 1-1.066 1.18c-.457.281-.992.422-1.606.422zm.004-1.07c.398 0 .727-.105.989-.315.261-.21.454-.49.58-.839.127-.35.191-.735.191-1.155a3.33 3.33 0 0 0-.192-1.151 1.875 1.875 0 0 0-.58-.848c-.26-.213-.59-.319-.988-.319-.4 0-.733.106-.997.319a1.906 1.906 0 0 0-.584.848c-.125.35-.187.733-.187 1.151 0 .42.062.805.187 1.155.128.349.323.629.584.839.264.21.597.315.997.315zm4.47.938v-6.545h1.222v1.065h.081c.137-.361.36-.642.67-.844.309-.204.68-.307 1.111-.307.438 0 .805.103 1.1.307.298.205.518.486.66.844h.069c.156-.35.404-.628.745-.835.341-.211.748-.316 1.22-.316.593 0 1.077.186 1.452.559.378.372.567.933.567 1.683V132h-1.274v-4.27c0-.443-.12-.764-.362-.963a1.317 1.317 0 0 0-.865-.298c-.415 0-.738.128-.968.383-.23.253-.345.578-.345.976V132h-1.27v-4.351c0-.355-.11-.64-.332-.856-.222-.216-.51-.324-.865-.324a1.24 1.24 0 0 0-.67.192 1.403 1.403 0 0 0-.49.524 1.602 1.602 0 0 0-.182.779V132h-1.275z"/><rect width="136" height="32" x="118" y="112" fill="#2B2F3B" rx="8"/><rect width="24" height="24" x="122" y="116" fill="#918CED" rx="4"/><path fill="#fff" d="M133.123 122.604a1 1 0 0 1 1.754 0l1.457 2.664c.092.168.23.306.398.398l2.664 1.457a1 1 0 0 1 0 1.754l-2.664 1.457c-.168.092-.306.23-.398.398l-1.457 2.664a1 1 0 0 1-1.754 0l-1.457-2.664a1.003 1.003 0 0 0-.398-.398l-2.664-1.457a1 1 0 0 1 0-1.754l2.664-1.457c.168-.092.306-.23.398-.398l1.457-2.664z"/><path fill="#E4E5E9" d="M154.959 132v-8.727h5.471v1.133h-4.154v2.659h3.869v1.13h-3.869v2.671h4.206V132h-5.523zm10.243-6.545v1.022h-3.699v-1.022h3.699zM162.517 132v-7.304c0-.409.09-.749.269-1.018.179-.273.416-.476.712-.61.295-.136.616-.204.963-.204.255 0 .474.021.656.064.182.039.317.076.405.11l-.299 1.032a6.14 6.14 0 0 0-.23-.06 1.289 1.289 0 0 0-.341-.038c-.309 0-.531.076-.664.23-.131.153-.196.375-.196.664V132h-1.275zm7.115-6.545v1.022h-3.699v-1.022h3.699zM166.947 132v-7.304c0-.409.09-.749.269-1.018a1.65 1.65 0 0 1 .711-.61c.296-.136.617-.204.963-.204.256 0 .475.021.657.064.181.039.316.076.404.11l-.298 1.032a6.703 6.703 0 0 0-.23-.06 1.294 1.294 0 0 0-.341-.038c-.31 0-.531.076-.665.23-.13.153-.196.375-.196.664V132h-1.274zm6.563.132c-.645 0-1.201-.138-1.667-.413a2.8 2.8 0 0 1-1.073-1.172c-.25-.506-.375-1.098-.375-1.777 0-.671.125-1.261.375-1.773a2.91 2.91 0 0 1 1.056-1.197c.455-.287.986-.431 1.594-.431.369 0 .727.061 1.074.184.347.122.658.313.933.575.276.261.493.601.652 1.018.159.415.239.919.239 1.513v.452h-5.203v-.955h3.954c0-.335-.068-.632-.204-.89a1.54 1.54 0 0 0-.576-.618 1.601 1.601 0 0 0-.86-.226c-.358 0-.671.088-.938.264a1.777 1.777 0 0 0-.614.682 1.968 1.968 0 0 0-.213.908v.745c0 .438.077.81.231 1.117.156.307.373.541.652.703.278.159.603.239.975.239.242 0 .462-.035.661-.103a1.43 1.43 0 0 0 .516-.315 1.38 1.38 0 0 0 .332-.516l1.206.218c-.097.355-.27.666-.52.933-.247.264-.558.47-.933.618a3.49 3.49 0 0 1-1.274.217zm6.979 0c-.634 0-1.179-.143-1.637-.43a2.85 2.85 0 0 1-1.048-1.198c-.244-.508-.366-1.091-.366-1.747 0-.665.124-1.251.374-1.76.25-.511.603-.91 1.057-1.197.455-.287.99-.431 1.607-.431.497 0 .94.093 1.329.277.39.182.704.438.942.767.242.33.385.715.431 1.155h-1.24a1.489 1.489 0 0 0-.469-.792c-.242-.222-.566-.333-.972-.333-.355 0-.666.094-.933.281-.264.185-.47.449-.618.793-.148.341-.222.744-.222 1.21 0 .478.073.889.218 1.236.145.347.349.615.613.805.267.191.581.286.942.286.242 0 .46-.044.656-.132.199-.091.365-.22.499-.388.136-.168.232-.369.286-.605h1.24a2.415 2.415 0 0 1-.414 1.133c-.23.333-.538.594-.925.785-.383.19-.833.285-1.35.285zm7.107-6.677v1.022h-3.576v-1.022h3.576zm-2.617-1.569h1.274v6.192c0 .247.037.433.111.558a.577.577 0 0 0 .286.252c.119.042.248.064.387.064.103 0 .192-.007.269-.022l.179-.034.23 1.053a2.534 2.534 0 0 1-.827.136 2.234 2.234 0 0 1-.937-.179 1.602 1.602 0 0 1-.703-.579c-.179-.262-.269-.59-.269-.985v-6.456z"/><path fill="#A1A3AA" d="M26.528 168.406v-1.133h6.755v1.133H30.56V176h-1.313v-7.594h-2.719zm9.953 7.726c-.614 0-1.15-.141-1.607-.422a2.84 2.84 0 0 1-1.065-1.18c-.253-.506-.38-1.097-.38-1.773 0-.679.127-1.273.38-1.781a2.836 2.836 0 0 1 1.065-1.185c.458-.281.993-.422 1.607-.422.613 0 1.149.141 1.606.422.458.281.813.676 1.066 1.185.253.508.379 1.102.379 1.781 0 .676-.126 1.267-.38 1.773a2.84 2.84 0 0 1-1.065 1.18c-.457.281-.993.422-1.606.422zm.004-1.07c.398 0 .727-.105.989-.315.261-.21.454-.49.58-.839.127-.35.191-.735.191-1.155a3.33 3.33 0 0 0-.192-1.151 1.875 1.875 0 0 0-.58-.848c-.26-.213-.59-.319-.988-.319-.4 0-.733.106-.997.319a1.906 1.906 0 0 0-.584.848c-.125.35-.187.733-.187 1.151 0 .42.062.805.187 1.155.128.349.323.629.584.839.264.21.596.315.997.315z"/><rect width="136" height="32" x="118" y="156" fill="#2B2F3B" rx="8"/><rect width="24" height="24" x="122" y="160" fill="#918CED" rx="4"/><path fill="#fff" d="M133.123 166.604a1 1 0 0 1 1.754 0l1.457 2.664c.092.168.23.306.398.398l2.664 1.457a1 1 0 0 1 0 1.754l-2.664 1.457c-.168.092-.306.23-.398.398l-1.457 2.664a1 1 0 0 1-1.754 0l-1.457-2.664a1.003 1.003 0 0 0-.398-.398l-2.664-1.457a1 1 0 0 1 0-1.754l2.664-1.457c.168-.092.306-.23.398-.398l1.457-2.664z"/><path fill="#E4E5E9" d="M154.959 176v-8.727h5.471v1.133h-4.154v2.659h3.869v1.13h-3.869v2.671h4.206V176h-5.523zm10.243-6.545v1.022h-3.699v-1.022h3.699zM162.517 176v-7.304c0-.409.09-.749.269-1.018.179-.273.416-.476.712-.61.295-.136.616-.204.963-.204.255 0 .474.021.656.064.182.039.317.076.405.11l-.299 1.032a6.14 6.14 0 0 0-.23-.06 1.289 1.289 0 0 0-.341-.038c-.309 0-.531.076-.664.23-.131.153-.196.375-.196.664V176h-1.275zm7.115-6.545v1.022h-3.699v-1.022h3.699zM166.947 176v-7.304c0-.409.09-.749.269-1.018a1.65 1.65 0 0 1 .711-.61c.296-.136.617-.204.963-.204.256 0 .475.021.657.064.181.039.316.076.404.11l-.298 1.032a6.703 6.703 0 0 0-.23-.06 1.294 1.294 0 0 0-.341-.038c-.31 0-.531.076-.665.23-.13.153-.196.375-.196.664V176h-1.274zm6.563.132c-.645 0-1.201-.138-1.667-.413a2.8 2.8 0 0 1-1.073-1.172c-.25-.506-.375-1.098-.375-1.777 0-.671.125-1.261.375-1.773a2.91 2.91 0 0 1 1.056-1.197c.455-.287.986-.431 1.594-.431.369 0 .727.061 1.074.184.347.122.658.313.933.575.276.261.493.601.652 1.018.159.415.239.919.239 1.513v.452h-5.203v-.955h3.954c0-.335-.068-.632-.204-.89a1.54 1.54 0 0 0-.576-.618 1.601 1.601 0 0 0-.86-.226c-.358 0-.671.088-.938.264a1.777 1.777 0 0 0-.614.682 1.968 1.968 0 0 0-.213.908v.745c0 .438.077.81.231 1.117.156.307.373.541.652.703.278.159.603.239.975.239.242 0 .462-.035.661-.103a1.43 1.43 0 0 0 .516-.315 1.38 1.38 0 0 0 .332-.516l1.206.218c-.097.355-.27.666-.52.933-.247.264-.558.47-.933.618a3.49 3.49 0 0 1-1.274.217zm6.979 0c-.634 0-1.179-.143-1.637-.43a2.85 2.85 0 0 1-1.048-1.198c-.244-.508-.366-1.091-.366-1.747 0-.665.124-1.251.374-1.76.25-.511.603-.91 1.057-1.197.455-.287.99-.431 1.607-.431.497 0 .94.093 1.329.277.39.182.704.438.942.767.242.33.385.715.431 1.155h-1.24a1.489 1.489 0 0 0-.469-.792c-.242-.222-.566-.333-.972-.333-.355 0-.666.094-.933.281-.264.185-.47.449-.618.793-.148.341-.222.744-.222 1.21 0 .478.073.889.218 1.236.145.347.349.615.613.805.267.191.581.286.942.286.242 0 .46-.044.656-.132.199-.091.365-.22.499-.388.136-.168.232-.369.286-.605h1.24a2.415 2.415 0 0 1-.414 1.133c-.23.333-.538.594-.925.785-.383.19-.833.285-1.35.285zm7.107-6.677v1.022h-3.576v-1.022h3.576zm-2.617-1.569h1.274v6.192c0 .247.037.433.111.558a.577.577 0 0 0 .286.252c.119.042.248.064.387.064.103 0 .192-.007.269-.022l.179-.034.23 1.053a2.534 2.534 0 0 1-.827.136 2.234 2.234 0 0 1-.937-.179 1.602 1.602 0 0 1-.703-.579c-.179-.262-.269-.59-.269-.985v-6.456z"/><path fill="#A1A3AA" d="M26.528 212.406v-1.133h6.755v1.133H30.56V220h-1.313v-7.594h-2.719zM33.993 220v-6.545h1.232v1.039h.068c.12-.352.33-.629.63-.831a1.808 1.808 0 0 1 1.032-.306 5.06 5.06 0 0 1 .541.029v1.219a2.312 2.312 0 0 0-.273-.047c-.13-.02-.261-.03-.392-.03-.3 0-.57.064-.805.192a1.428 1.428 0 0 0-.759 1.283V220h-1.274zm6.452.145c-.415 0-.79-.077-1.125-.23a1.89 1.89 0 0 1-.797-.678c-.193-.295-.29-.657-.29-1.086 0-.37.071-.674.213-.912.142-.239.334-.428.576-.567.241-.139.511-.244.81-.315a8.07 8.07 0 0 1 .911-.162l.955-.111c.244-.031.422-.081.532-.149.111-.069.167-.179.167-.333v-.03c0-.372-.105-.66-.316-.865-.207-.204-.517-.306-.929-.306-.429 0-.767.095-1.014.285-.244.188-.413.396-.507.626l-1.197-.272c.142-.398.349-.719.622-.963.275-.247.592-.426.95-.537a3.7 3.7 0 0 1 1.13-.171c.26 0 .538.032.83.094.296.06.571.171.827.332.258.162.47.394.635.695.165.298.247.686.247 1.163V220h-1.244v-.895h-.051a1.808 1.808 0 0 1-.371.486 1.969 1.969 0 0 1-.635.396 2.465 2.465 0 0 1-.929.158zm.277-1.023c.352 0 .653-.069.903-.209.253-.139.445-.321.576-.545.133-.227.2-.47.2-.729v-.844a.646.646 0 0 1-.264.128c-.128.037-.274.07-.44.098-.164.026-.325.05-.48.073l-.393.051a3.135 3.135 0 0 0-.677.158c-.202.073-.364.18-.486.319-.12.137-.18.318-.18.546 0 .315.117.554.35.716.233.159.53.238.89.238zm5.924-3.008V220h-1.274v-6.545h1.223v1.065h.081c.15-.347.386-.625.707-.835.324-.211.732-.316 1.223-.316.447 0 .837.094 1.172.282.336.184.596.46.78.826.185.367.277.82.277 1.36V220h-1.274v-4.01c0-.474-.123-.845-.37-1.112-.248-.27-.587-.405-1.02-.405-.295 0-.557.064-.788.192a1.38 1.38 0 0 0-.54.562c-.131.245-.197.54-.197.887zm10.803-1.061-1.155.204a1.371 1.371 0 0 0-.23-.422 1.142 1.142 0 0 0-.418-.328 1.515 1.515 0 0 0-.66-.128c-.361 0-.662.081-.904.243-.241.159-.362.365-.362.618a.65.65 0 0 0 .243.528c.162.134.423.243.784.329l1.04.238c.602.139 1.051.354 1.346.644.296.289.444.666.444 1.129 0 .392-.114.741-.341 1.048-.225.304-.539.543-.942.716-.4.173-.865.26-1.393.26-.733 0-1.331-.156-1.795-.469-.462-.315-.747-.762-.852-1.342l1.232-.187c.077.321.234.563.473.728.238.162.55.243.933.243.418 0 .752-.087 1.002-.26.25-.176.375-.39.375-.643a.669.669 0 0 0-.23-.516c-.151-.139-.383-.244-.695-.315l-1.108-.243c-.611-.139-1.063-.361-1.355-.665-.29-.304-.435-.689-.435-1.155 0-.386.108-.724.324-1.014a2.12 2.12 0 0 1 .895-.678 3.28 3.28 0 0 1 1.308-.247c.707 0 1.264.154 1.67.461.407.304.675.711.806 1.223zM58.978 220v-6.545h1.274V220h-1.274zm.643-7.555a.81.81 0 0 1-.57-.222.722.722 0 0 1-.235-.537c0-.21.078-.389.234-.537.16-.15.35-.226.571-.226a.79.79 0 0 1 .567.226.707.707 0 0 1 .238.537.72.72 0 0 1-.238.537.794.794 0 0 1-.567.222zm5.4 1.01v1.022h-3.575v-1.022h3.575zm-2.616-1.569h1.274v6.192c0 .247.037.433.11.558a.578.578 0 0 0 .286.252c.12.042.249.064.388.064.102 0 .192-.007.269-.022l.178-.034.23 1.053a2.526 2.526 0 0 1-.827.136 2.239 2.239 0 0 1-.937-.179 1.61 1.61 0 0 1-.703-.579c-.179-.262-.268-.59-.268-.985v-6.456zM66.43 220v-6.545h1.274V220H66.43zm.643-7.555a.81.81 0 0 1-.57-.222.722.722 0 0 1-.235-.537c0-.21.078-.389.234-.537.16-.15.35-.226.571-.226a.79.79 0 0 1 .567.226c.16.148.239.327.239.537 0 .207-.08.386-.239.537a.794.794 0 0 1-.567.222zm5.102 7.687c-.614 0-1.149-.141-1.606-.422a2.84 2.84 0 0 1-1.066-1.18c-.253-.506-.379-1.097-.379-1.773 0-.679.126-1.273.38-1.781a2.835 2.835 0 0 1 1.065-1.185c.457-.281.993-.422 1.606-.422.614 0 1.15.141 1.607.422.457.281.812.676 1.065 1.185.253.508.38 1.102.38 1.781 0 .676-.127 1.267-.38 1.773a2.84 2.84 0 0 1-1.065 1.18c-.458.281-.993.422-1.607.422zm.004-1.07c.398 0 .728-.105.989-.315.261-.21.455-.49.58-.839.127-.35.191-.735.191-1.155a3.33 3.33 0 0 0-.191-1.151 1.875 1.875 0 0 0-.58-.848c-.261-.213-.59-.319-.989-.319-.4 0-.733.106-.997.319a1.906 1.906 0 0 0-.584.848c-.125.35-.187.733-.187 1.151 0 .42.062.805.187 1.155.128.349.323.629.584.839.264.21.597.315.997.315zm5.744-2.948V220h-1.275v-6.545h1.224v1.065h.08c.151-.347.387-.625.708-.835.324-.211.731-.316 1.223-.316.446 0 .837.094 1.172.282.335.184.595.46.78.826.184.367.277.82.277 1.36V220h-1.275v-4.01c0-.474-.123-.845-.37-1.112-.248-.27-.587-.405-1.019-.405-.295 0-.558.064-.788.192a1.38 1.38 0 0 0-.541.562c-.131.245-.196.54-.196.887z"/><rect width="136" height="32" x="118" y="200" fill="#2B2F3B" rx="8"/><rect width="24" height="24" x="122" y="204" fill="#918CED" rx="4"/><path fill="#fff" stroke="#fff" stroke-width=".5" d="M132.985 215.966a7.53 7.53 0 0 1-1.274 1.742c-.462.474-.879.777-1.108.867-.506.2-1.234.202-1.68.202h-.437a.737.737 0 0 0 0 1.473h.87c.566 0 1.576-.041 2.421-.509.586-.324 1.096-.922 1.551-1.561.274-.385.543-.81.8-1.216.166-.261.327-.515.48-.744.568-.849 1.237-1.712 1.84-2.207.753-.619 1.488-.79 2.6-.79h.466a.737.737 0 0 0 0-1.473h-1.158c-.543 0-1.044.066-1.541.253-.498.187-.979.489-1.492.945-.934.831-1.828 2.033-2.338 3.018z"/><path fill="#E4E5E9" d="M159.719 213.565a1.245 1.245 0 0 0-.563-.937c-.329-.225-.744-.337-1.244-.337a2.31 2.31 0 0 0-.929.171 1.42 1.42 0 0 0-.609.46 1.085 1.085 0 0 0-.213.66c0 .208.048.387.144.537.1.151.229.277.388.38.162.099.335.183.52.251.185.065.362.119.533.162l.852.222c.278.068.564.16.857.277a3.4 3.4 0 0 1 .813.46c.25.19.452.426.606.707.156.281.234.618.234 1.01 0 .494-.128.933-.384 1.317-.252.383-.62.686-1.103.907-.48.222-1.061.333-1.743.333-.654 0-1.219-.104-1.696-.311-.477-.208-.851-.502-1.121-.882-.27-.384-.419-.838-.447-1.364h1.321c.025.315.128.578.306.788.182.208.414.363.695.465.284.099.595.149.933.149.372 0 .703-.058.993-.175.293-.119.523-.284.691-.494.167-.213.251-.462.251-.746a.916.916 0 0 0-.222-.635 1.638 1.638 0 0 0-.592-.409 5.746 5.746 0 0 0-.839-.285l-1.032-.282c-.699-.19-1.253-.47-1.662-.839-.406-.369-.609-.858-.609-1.466 0-.503.136-.942.409-1.317a2.684 2.684 0 0 1 1.108-.873 3.8 3.8 0 0 1 1.577-.316c.591 0 1.112.104 1.564.311.454.208.812.493 1.074.857.261.361.397.776.409 1.244h-1.27zm2.86 8.89v-9h1.245v1.061h.106c.074-.137.18-.294.32-.473.139-.179.332-.336.579-.469.247-.136.574-.205.98-.205.529 0 1 .134 1.415.401.415.267.74.652.976 1.155.239.503.358 1.108.358 1.815 0 .707-.118 1.314-.354 1.82-.236.502-.559.89-.971 1.163-.412.27-.883.405-1.411.405-.398 0-.723-.067-.976-.2a1.853 1.853 0 0 1-.588-.469 3.592 3.592 0 0 1-.328-.477h-.077v3.473h-1.274zm1.249-5.728c0 .46.067.864.2 1.211.134.346.327.617.58.813.252.194.562.29.929.29.38 0 .698-.101.954-.302.256-.205.449-.482.58-.831.133-.35.2-.743.2-1.181 0-.432-.065-.819-.196-1.163a1.78 1.78 0 0 0-.58-.814c-.255-.199-.575-.298-.958-.298-.37 0-.682.095-.938.285a1.75 1.75 0 0 0-.575.797 3.319 3.319 0 0 0-.196 1.193zm6.157 3.273v-6.545h1.232v1.039h.068c.119-.352.33-.629.631-.831a1.809 1.809 0 0 1 1.031-.306 5.037 5.037 0 0 1 .541.029v1.219a2.312 2.312 0 0 0-.272-.047 2.597 2.597 0 0 0-.392-.03c-.302 0-.57.064-.806.192a1.425 1.425 0 0 0-.758 1.283V220h-1.275zm4.606 0v-6.545h1.274V220h-1.274zm.643-7.555a.81.81 0 0 1-.571-.222.722.722 0 0 1-.234-.537c0-.21.078-.389.234-.537a.805.805 0 0 1 .571-.226c.222 0 .411.076.567.226a.707.707 0 0 1 .239.537c0 .207-.08.386-.239.537a.794.794 0 0 1-.567.222zm3.619 3.669V220h-1.274v-6.545h1.223v1.065h.081c.151-.347.387-.625.708-.835.323-.211.731-.316 1.223-.316.446 0 .836.094 1.171.282.336.184.596.46.78.826.185.367.277.82.277 1.36V220h-1.274v-4.01c0-.474-.123-.845-.371-1.112-.247-.27-.586-.405-1.018-.405-.296 0-.558.064-.788.192a1.38 1.38 0 0 0-.542.562c-.13.245-.196.54-.196.887zm8.642 6.477c-.52 0-.967-.068-1.342-.205a2.59 2.59 0 0 1-.912-.541 2.256 2.256 0 0 1-.528-.737l1.095-.452c.077.125.179.257.307.397.13.142.307.262.528.362.225.099.513.149.865.149.483 0 .882-.118 1.198-.354.315-.233.473-.605.473-1.116v-1.287h-.081a2.911 2.911 0 0 1-.333.464 1.789 1.789 0 0 1-.588.443c-.25.125-.575.188-.976.188-.517 0-.983-.121-1.397-.362-.412-.245-.739-.604-.98-1.078-.239-.478-.358-1.064-.358-1.76s.117-1.293.353-1.79c.239-.497.566-.878.98-1.142a2.55 2.55 0 0 1 1.411-.401c.406 0 .734.069.984.205.25.133.445.29.584.469.142.179.251.336.328.473h.094v-1.061h1.249v6.69c0 .562-.131 1.024-.393 1.385a2.3 2.3 0 0 1-1.061.801c-.443.173-.943.26-1.5.26zm-.012-3.746c.366 0 .676-.085.929-.256.255-.173.448-.42.579-.741.134-.324.2-.712.2-1.163 0-.441-.065-.828-.196-1.164a1.726 1.726 0 0 0-.575-.784c-.253-.19-.565-.285-.937-.285-.384 0-.704.099-.959.298a1.8 1.8 0 0 0-.58.801 3.181 3.181 0 0 0-.192 1.134c0 .429.066.805.197 1.129.13.324.323.577.579.758.259.182.577.273.955.273z"/><path stroke="#A1A3AA" stroke-linecap="round" stroke-linejoin="round" stroke-width="1.5" d="m243 213-6 6m0-6 6 6"/></svg>