
<svg xmlns="http://www.w3.org/2000/svg" width="392" height="303" fill="none"><rect width="391" height="302" x=".5" y=".5" fill="#14171F" rx="11.5"/><circle cx="14" cy="14" r="2" fill="#EB92D5"/><circle cx="22" cy="14" r="2" fill="#EDF593"/><circle cx="30" cy="14" r="2" fill="#65D1AE"/><rect width="376" height="267" x="8" y="28" fill="#0E1015" rx="4"/><rect width="36.257" height="7.162" x="18.743" y="42.324" fill="#20232C" rx=".895"/><rect width="48.343" height="14.324" x="324.914" y="38.743" fill="#2B2F3B" rx="3.581"/><rect width="232.762" height="14.324" x="79.619" y="91.562" fill="#20232C" rx=".895"/><rect width="190.686" height="14.324" x="100.657" y="113.048" fill="#20232C" rx=".895"/><rect width="190.686" height="7.162" x="100.657" y="141.695" fill="#14171F" rx=".895"/><rect width="59.086" height="14.324" x="166.457" y="163.181" fill="#918CED" rx="3.581"/><circle cx="203.162" cy="197.2" r="5.371" fill="#20232C"/><circle cx="188.838" cy="197.2" r="5.371" fill="#20232C"/><circle cx="196" cy="197.2" r="5.371" fill="#2B2F3B"/><path fill="url(#a)" d="M18.743 248.229a7.162 7.162 0 0 1 7.162-7.162h340.19a7.161 7.161 0 0 1 7.162 7.162V295H18.743v-46.771z"/><rect width="391" height="302" x=".5" y=".5" stroke="#20232C" rx="11.5"/><defs><linearGradient id="a" x1="196" x2="196" y1="241.067" y2="295" gradientUnits="userSpaceOnUse"><stop stop-color="#14171F"/><stop offset="1" stop-color="#14171F" stop-opacity="0"/></linearGradient></defs></svg>